<svg width="24" height="24" viewBox="0 0 24 24" fill="none" xmlns="http://www.w3.org/2000/svg">
<g id="Icons/Copy">
<path id="Vector" d="M6.9998 6V3C6.9998 2.44772 6.9998 2 6.9998 2L20.9998 2C20.9998 2 20.9998 2.44772 20.9998 3L20.9998 18C20.9998 18 20.5521 18 19.9998 18H16.9998L16.9998 22C16.9998 22 16.5499 22 15.993 22H4.00666C3.45059 22 2.99982 22 3.0026 22L3.0026 7.00087C3.0027 6.44811 2.99982 6 2.99982 6H6.9998ZM5.00242 8L5.00019 20H14.9998L14.9998 8L5.00242 8ZM8.9998 6L16.9998 6V16H18.9998V4L8.9998 4V6Z" fill="#7AE1BF"/>
</g>
</svg>
